<svg xmlns="http://www.w3.org/2000/svg" width="36.156" height="33.179" viewBox="0 0 36.156 33.179"><defs><clipPath id="clip-path"><rect id="長方形_10274" data-name="長方形 10274" width="36.156" height="33.179" fill="none"/></clipPath></defs><g id="アートワーク_326" data-name="アートワーク 326" transform="translate(18.078 16.589)"><g id="グループ_26688" data-name="グループ 26688" transform="translate(-18.078 -16.589)" clip-path="url(#clip-path)"><path id="パス_551184" data-name="パス 551184" d="M36.043.32a.8.8 0 00-.465-.257.734.734 0 00-.33.037L.6 10.949a.746.746 0 00-.04 1.407l11.34 4.257-1.407 9.822a.746.746 0 001.064.758l8.819-4.4L28.5 32.954a.746.746 0 001.309-.318L36.2.956a.746.746 0 00-.157-.636M3.1 11.72l27.72-8.684-18.2 12.256zm10.3 4.831l14.313-9.626-11.032 10.14h-.012l-.024.024-.024.024-.024.024-.024.037h-.012l-4.134 6.214zm0 8.06l3.828-5.749L19.42 21.6zm15.265 6.165L18.2 17.689l16.109-14.8z" transform="translate(-.07 -.051)" fill="#484848"/></g></g></svg>